<svg width="36" height="37" viewBox="0 0 36 37" fill="none" xmlns="http://www.w3.org/2000/svg">
<path d="M14.205 12.4998C14.2048 12.8976 14.0466 13.2791 13.7651 13.5602C13.4837 13.8414 13.1021 13.9992 12.7042 13.999C12.3064 13.9988 11.925 13.8406 11.6438 13.5592C11.3626 13.2777 11.2048 12.8961 11.205 12.4983C11.2052 12.1004 11.3634 11.719 11.6449 11.4378C11.9263 11.1567 12.3079 10.9988 12.7057 10.999C13.1036 10.9992 13.485 11.1574 13.7662 11.4389C14.0473 11.7203 14.2052 12.1019 14.205 12.4998ZM14.25 15.1098H11.25V24.4998H14.25V15.1098ZM18.99 15.1098H16.005V24.4998H18.96V19.5723C18.96 16.8273 22.5375 16.5723 22.5375 19.5723V24.4998H25.5V18.5523C25.5 13.9248 20.205 14.0973 18.96 16.3698L18.99 15.1098Z" fill="#1414a9"/>
<rect x="0.5" y="0.765625" width="35" height="35" rx="17.5" stroke="#1414a9" stroke-opacity="0.9"/>
</svg>
