<svg width="36" height="37" viewBox="0 0 36 37" fill="none" xmlns="http://www.w3.org/2000/svg">
<path fill-rule="evenodd" clip-rule="evenodd" d="M14.8 10.75H21.2C23.851 10.75 26 12.899 26 15.55V21.95C26 24.601 23.851 26.75 21.2 26.75H14.8C12.149 26.75 10 24.601 10 21.95V15.55C10 12.899 12.149 10.75 14.8 10.75ZM14.8 12.35C13.0327 12.35 11.6 13.7827 11.6 15.55V21.95C11.6 23.7173 13.0327 25.15 14.8 25.15H21.2C22.9673 25.15 24.4 23.7173 24.4 21.95V15.55C24.4 13.7827 22.9673 12.35 21.2 12.35H14.8ZM18 22.75C15.7909 22.75 14 20.9591 14 18.75C14 16.5409 15.7909 14.75 18 14.75C20.2091 14.75 22 16.5409 22 18.75C22 20.9591 20.2091 22.75 18 22.75ZM18 21.15C19.3255 21.15 20.4 20.0755 20.4 18.75C20.4 17.4245 19.3255 16.35 18 16.35C16.6745 16.35 15.6 17.4245 15.6 18.75C15.6 20.0755 16.6745 21.15 18 21.15ZM22 15.55C21.5582 15.55 21.2 15.1918 21.2 14.75C21.2 14.3082 21.5582 13.95 22 13.95C22.4418 13.95 22.8 14.3082 22.8 14.75C22.8 15.1918 22.4418 15.55 22 15.55Z" fill="#1414a9"/>
<rect x="0.5" y="0.765625" width="35" height="35" rx="17.5" stroke="#1414a9" stroke-opacity="0.9"/>
</svg>
