<svg width="36" height="37" viewBox="0 0 36 37" fill="none" xmlns="http://www.w3.org/2000/svg">
<path d="M23.359 14.651C23.9874 14.2433 24.4035 13.6869 24.6072 12.9793C23.9959 13.322 23.387 13.5571 22.7788 13.6869C22.232 13.0656 21.5399 12.75 20.71 12.75C19.8988 12.75 19.2137 13.0508 18.6545 13.636C18.0984 14.2252 17.8176 14.9411 17.8176 15.7769C17.8176 16.0309 17.848 16.2577 17.9086 16.45C15.5163 16.3637 13.5362 15.315 11.9761 13.2965C11.7116 13.7905 11.5794 14.2935 11.5794 14.8137C11.5794 15.8829 12.0064 16.7303 12.8588 17.3524C12.3727 17.3089 11.9442 17.179 11.5794 16.9661C11.5794 17.7297 11.7917 18.3674 12.2172 18.9288C12.6441 19.4843 13.1924 19.8386 13.8621 19.9898C13.6194 20.0555 13.3635 20.0868 13.1007 20.0868C12.858 20.0868 12.6861 20.0654 12.5842 20.0185C12.7631 20.6407 13.1007 21.1453 13.5883 21.5316C14.0744 21.9195 14.6336 22.1242 15.262 22.1422C14.226 23.0011 13.0416 23.426 11.7015 23.426C11.3733 23.426 11.1408 23.421 11 23.3947C12.3198 24.3004 13.789 24.75 15.4144 24.75C17.078 24.75 18.5479 24.3046 19.8273 23.4137C21.1067 22.5277 22.0508 21.4346 22.6575 20.1476C23.2672 18.8622 23.569 17.5242 23.569 16.127V15.7424C24.1585 15.2739 24.6352 14.7463 25 14.1636C24.4711 14.4044 23.9244 14.568 23.359 14.651Z" fill="#75757F"/>
<rect x="0.5" y="0.765625" width="35" height="35" rx="17.5" stroke="#81818B" stroke-opacity="0.9"/>
</svg>
