<svg width="36" height="37" viewBox="0 0 36 37" fill="none" xmlns="http://www.w3.org/2000/svg">
<path d="M25.6657 14.6276C25.4817 13.8885 24.9395 13.3065 24.2511 13.1089C23.0033 12.75 18 12.75 18 12.75C18 12.75 12.9967 12.75 11.7489 13.1089C11.0605 13.3065 10.5183 13.8885 10.3343 14.6276C10 15.9672 10 18.7621 10 18.7621C10 18.7621 10 21.5571 10.3343 22.8967C10.5183 23.6357 11.0605 24.1935 11.7489 24.3911C12.9967 24.75 18 24.75 18 24.75C18 24.75 23.0033 24.75 24.2511 24.3911C24.9395 24.1935 25.4817 23.6357 25.6657 22.8967C26 21.5571 26 18.7621 26 18.7621C26 18.7621 26 15.9672 25.6657 14.6276ZM16.3636 21.2997V16.2245L20.5454 18.7622L16.3636 21.2997Z" fill="#75757F"/>
<rect x="0.5" y="0.765625" width="35" height="35" rx="17.5" stroke="#81818B" stroke-opacity="0.9"/>
</svg>
